<svg id="Ebene_1" data-name="Ebene 1" xmlns="http://www.w3.org/2000/svg" viewBox="0 0 849.33 604.85"><defs><style>.cls-1{fill:#2b3e4f;}.cls-2{fill:#2981bc;}</style></defs><polygon class="cls-1" points="672.74 604.85 849.33 0 681.98 0 505.39 604.85 672.74 604.85"/><polygon class="cls-1" points="342.41 604.85 519 0 351.65 0 175.06 604.85 342.41 604.85"/><polygon class="cls-1" points="0 604.85 42.83 458.14 205.17 458.14 162.33 604.85 0 604.85"/><polygon class="cls-1" points="532.13 470.59 493.19 603.97 480.69 603.98 394.41 470.59 437.25 323.89 532.13 470.59"/><polyline class="cls-2" points="192.54 458.14 149.71 604.85 162.33 604.85 205.17 458.14"/><polygon class="cls-2" points="506.38 0 329.79 604.85 342.41 604.85 519 0 506.38 0"/><polygon class="cls-2" points="836.71 0 660.11 604.85 672.73 604.85 849.33 0 836.71 0"/><path class="cls-2" d="M598.86,654.86,556,801.56h12.5s26-88.92,39-133.38Z" transform="translate(-75.33 -197.58)"/></svg>